<?xml version="1.0" encoding="UTF-8" standalone="no"?>
<!-- Created with Inkscape (http://www.inkscape.org/) -->

<svg
   xmlns:dc="http://purl.org/dc/elements/1.1/"
   xmlns:cc="http://creativecommons.org/ns#"
   xmlns:rdf="http://www.w3.org/1999/02/22-rdf-syntax-ns#"
   xmlns:svg="http://www.w3.org/2000/svg"
   xmlns="http://www.w3.org/2000/svg"
   xmlns:sodipodi="http://sodipodi.sourceforge.net/DTD/sodipodi-0.dtd"
   xmlns:inkscape="http://www.inkscape.org/namespaces/inkscape"
   version="1.1"
   id="svg2102"
   width="121.20854"
   height="111.06924"
   viewBox="0 0 121.20854 111.06924"
   sodipodi:docname="sonia-logo.svg"
   inkscape:version="0.92.3 (2405546, 2018-03-11)">
  <metadata
     id="metadata2108">
    <rdf:RDF>
      <cc:Work
         rdf:about="">
        <dc:format>image/svg+xml</dc:format>
        <dc:type
           rdf:resource="http://purl.org/dc/dcmitype/StillImage" />
        <dc:title></dc:title>
      </cc:Work>
    </rdf:RDF>
  </metadata>
  <defs
     id="defs2106" />
  <sodipodi:namedview
     pagecolor="#ffffff"
     bordercolor="#666666"
     borderopacity="1"
     objecttolerance="10"
     gridtolerance="10"
     guidetolerance="10"
     inkscape:pageopacity="0"
     inkscape:pageshadow="2"
     inkscape:window-width="1920"
     inkscape:window-height="1139"
     id="namedview2104"
     showgrid="false"
     inkscape:zoom="7.1951221"
     inkscape:cx="-23.898678"
     inkscape:cy="67.57502"
     inkscape:window-x="1920"
     inkscape:window-y="0"
     inkscape:window-maximized="1"
     inkscape:current-layer="svg2102"
     fit-margin-top="0"
     fit-margin-left="0"
     fit-margin-right="0"
     fit-margin-bottom="0" />
  <path
     style="fill:#000000;stroke-width:0.31999999"
     d="M 51.316018,93.622816 C 34.513481,91.868936 20.133649,82.070337 13.704361,67.993757 c -1.005249,-2.20093 -1.418817,-2.79768 -1.940513,-2.8 -2.94325,-0.0131 -7.12799,-3.42453 -8.4431388,-6.88294 C 0.6207085,51.210687 2.5738791,42.827992 7.683185,39.587768 L 9.032107,38.732305 7.111219,37.377659 C 5.012271,35.897441 2.6611399,32.978353 1.5482148,30.470814 -0.8652522,25.033016 -0.4350278,18.070408 2.68501,12.0733 8.637645,0.63158327 21.090361,-2.9520137 32.937206,3.3674353 l 2.270361,1.211077 3.319744,-1.246447 c 11.154506,-4.18812703 23.808531,-4.438208 35.084544,-0.693376 l 3.265015,1.084331 2.431478,-1.123412 C 84.418207,0.23870727 90.253535,-0.48652573 94.826842,0.67091927 103.99506,2.9912783 111.00727,11.414733 111.69072,20.928756 c 0.42985,5.983754 -2.05702,11.497223 -6.60862,14.651485 -0.72326,0.501216 -1.26685,1.055805 -1.20798,1.232413 0.0589,0.176611 0.80573,0.524838 1.65968,0.77384 2.09715,0.611501 4.95673,3.443696 5.73928,5.68432 2.48667,7.119923 -1.33895,17.432033 -7.17249,19.333753 -1.61546,0.52663 -1.70151,0.6147 -2.39025,2.44627 -7.250198,19.280739 -27.797918,30.930639 -50.394322,28.571979 z m 15.830826,-3.47404 c 9.319824,-1.9715 16.564246,-5.78263 22.749789,-11.968169 4.404569,-4.40458 6.816169,-8.06522 9.098759,-13.81132 1.008958,-2.53991 1.091548,-3.28833 0.21528,-1.95098 -0.72233,1.10241 -4.18021,3.62192 -6.740266,4.91114 -7.200759,3.62625 -16.449079,3.38121 -23.531584,-0.62347 -2.315642,-1.30934 -5.707575,-4.56696 -7.014631,-6.73686 -2.164899,-3.59405 -2.720637,-5.85878 -2.918835,-11.894716 -0.165658,-5.044957 -0.223072,-5.444941 -0.79736,-5.5548 -1.119008,-0.214061 -1.461152,0.804349 -1.461152,4.349203 0,7.327593 -2.65176,13.325713 -7.790243,17.621073 -2.041799,1.70678 -6.670067,3.97641 -9.649757,4.73207 -3.089139,0.78343 -9.422496,0.77876 -12.48,-0.009 -4.352067,-1.12157 -8.372504,-3.32496 -11.168299,-6.12076 -0.809435,-0.80943 -1.471701,-1.39208 -1.471701,-1.29477 0,0.35929 1.955382,5.08475 2.769386,6.69261 2.51554,4.96882 8.222198,11.38924 12.913155,14.52826 6.05856,4.054169 13.218211,6.728949 20.797459,7.769749 3.565709,0.48965 12.845379,0.1298 16.48,-0.63906 z m -11.2,-25.151709 c -1.080352,-0.58492 -3.36,-2.67543 -3.36,-3.08124 0,-0.76653 1.096723,-0.47182 2.565914,0.68951 2.432614,1.92287 3.492169,1.68783 4.626176,-1.02623 0.463459,-1.10922 1.194742,-1.53681 1.575276,-0.92109 0.288212,0.46633 -0.520352,2.5649 -1.379308,3.57989 -1.01889,1.20398 -2.6416,1.5098 -4.028058,0.75916 z m -15.68,1.03881 c 3.502432,-1.13376 6.256806,-2.84655 8.640637,-5.37315 3.498966,-3.70852 5.06976,-7.95696 5.06976,-13.711913 0,-5.754954 -1.570794,-10.003395 -5.06976,-13.71191 -2.365447,-2.507114 -5.104304,-4.218506 -8.640637,-5.399156 -2.304106,-0.769257 -3.023808,-0.854691 -7.2,-0.854691 -4.176192,0 -4.895894,0.08543 -7.2,0.854691 -3.536332,1.18065 -6.275189,2.892042 -8.640636,5.399156 -3.498227,3.707731 -5.056552,7.933462 -5.056552,13.71191 0,5.647133 1.530584,9.916293 4.840834,13.502223 4.316437,4.67592 9.672318,6.75063 16.856354,6.52965 3.030074,-0.0932 4.379952,-0.29291 6.4,-0.94681 z M 45.602623,49.09019 c -1.589168,-1.691594 -0.417507,-4.379376 1.909066,-4.379376 1.477008,0 2.515155,1.075165 2.515155,2.604845 0,2.272093 -2.873882,3.424788 -4.424221,1.774531 z m 1.655456,-9.43768 c -0.191017,-0.121933 -0.723449,-0.967504 -1.183184,-1.87905 -0.459734,-0.911545 -0.953017,-1.729747 -1.096182,-1.818227 -0.143165,-0.08848 -0.956455,0.699143 -1.807315,1.750275 -1.497389,1.849844 -2.164407,2.188218 -2.357053,1.195719 -0.11425,-0.588605 3.670614,-5.390413 4.248813,-5.390413 0.23039,0 1.079843,1.279718 1.88767,2.843821 1.154499,2.235328 1.381667,2.916118 1.061664,3.181696 -0.223914,0.18583 -0.563398,0.238112 -0.754413,0.116179 z m 38.862256,26.957147 c 7.582205,-1.54058 13.469827,-7.01023 15.305415,-14.21884 0.7046,-2.767085 0.70567,-8.425981 0.002,-11.200003 -0.85626,-3.376061 -2.553108,-6.466106 -4.806688,-8.753216 -4.507652,-4.574835 -12.109642,-6.669286 -18.754218,-5.167075 -1.985744,0.448937 -2.559488,0.672534 -6.24,2.431817 -2.565731,1.22642 -5.911165,4.802253 -7.472432,7.987056 -1.821802,3.716263 -2.390013,6.153956 -2.419843,10.381418 -0.02819,3.995613 0.401808,6.123603 1.836473,9.088293 3.617229,7.47488 12.973584,11.39618 22.549293,9.45055 z M 67.306844,49.668171 c -1.32,-0.590243 -2.443504,-1.283258 -2.496678,-1.540032 -0.103424,-0.499431 4.193862,-4.537325 4.8288,-4.537325 0.957923,0 0.444886,1.14991 -1.17257,2.628176 l -1.74984,1.599251 1.975146,0.810234 c 1.415891,0.580822 1.975142,0.977763 1.975142,1.401904 0,0.894248 -0.724845,0.816108 -3.36,-0.362208 z m -0.93041,-9.241703 c -0.418073,-0.50375 2.752266,-5.737174 3.571024,-5.894854 0.388506,-0.07482 0.926976,0.683907 1.995952,2.812362 0.805149,1.603152 1.378804,3.052524 1.274788,3.220828 -0.46544,0.753098 -1.183226,0.145936 -2.191223,-1.853513 l -1.088697,-2.159523 -1.235716,1.992928 c -1.327497,2.14095 -1.796291,2.520188 -2.326128,1.881772 z M 11.218659,61.590817 C 9.74279,55.063387 9.630957,54.218677 9.432982,48.103006 L 9.226844,41.735198 8.252108,42.556536 c -1.235128,1.040752 -2.512163,3.417398 -3.02852,5.636272 -0.517966,2.225789 -0.244435,6.743979 0.532771,8.800319 0.702823,1.85955 2.551972,4.06187 4.016564,4.78369 1.409117,0.69448 1.638154,0.66502 1.445736,-0.186 z m 94.475941,-3.30379 c 2.23413,-2.42374 3.52319,-6.041 3.52666,-9.896213 0.002,-2.627059 -0.36641,-4.147658 -1.36538,-5.630026 -0.64259,-0.953539 -2.5601,-2.530342 -3.07636,-2.529753 -0.10598,1.21e-4 -0.19576,3.132121 -0.19952,6.96 -0.005,5.392552 -0.13141,7.525942 -0.56,9.474002 -0.30424,1.38283 -0.55316,2.64283 -0.55316,2.8 0,0.69197 0.9834,0.17196 2.22776,-1.17801 z m -47.062886,-18.571583 1.47513,0.195181 0.749168,-1.839907 c 0.999629,-2.455024 3.161059,-5.641379 5.14336,-7.582288 l 1.616131,-1.582387 -2.260288,-0.587095 C 58.152774,26.448161 50.387458,20.06228 44.125692,10.860647 L 42.544543,8.5371543 41.961478,11.423249 c -1.032948,5.112944 -2.868292,8.795485 -5.612784,11.261815 -1.43024,1.28528 -1.425008,1.54575 0.03104,1.54575 3.030185,0 9.587606,2.685274 12.52711,5.129869 0.88,0.73184 2.220016,2.073008 2.977811,2.980374 1.415517,1.694909 3.902189,6.387866 3.902189,7.364387 0,0.460692 0.108995,0.489556 0.68487,0.181354 0.408052,-0.218381 1.281114,-0.287642 2.16,-0.171354 z M 10.52856,35.190814 C 12.986038,24.03826 19.569935,14.437649 29.066844,8.1583703 c 1.584,-1.047328 2.938726,-1.962207 3.010502,-2.033064 0.261063,-0.257716 -4.199057,-2.079764 -6.296909,-2.572414 -3.20931,-0.753659 -8.24917,-0.476224 -10.848583,0.597196 C 5.22568,8.1582213 -0.0252352,20.520206 4.193469,29.430968 c 0.520744,1.099913 1.390225,2.549504 1.932179,3.221308 0.984011,1.219776 3.532619,3.409556 3.975099,3.415431 0.128647,0.0016 0.321163,-0.392893 0.427813,-0.876893 z m 95.90356,-4.75248 c 1.62313,-2.110947 2.47571,-4.95456 2.47092,-8.241229 -0.013,-8.920444 -6.60096,-17.0994177 -15.249063,-18.9317707 -1.202922,-0.254874 -2.877203,-0.465908 -3.720624,-0.468964 -2.031594,-0.0074 -6.060819,0.842078 -8.127613,1.713459 l -1.661107,0.700339 1.661107,0.924636 C 91.747151,11.668586 99.194652,20.61708 102.40061,30.88043 l 0.82765,2.649613 0.99929,-0.762093 c 0.54961,-0.419152 1.54167,-1.467478 2.20457,-2.329616 z M 18.458545,28.427422 c 2.141348,-1.467837 4.314167,-2.459757 8.081995,-3.689533 1.944361,-0.634617 4.388198,-1.657907 5.430752,-2.273977 4.570714,-2.700948 7.02783,-7.328688 7.693379,-14.4897167 l 0.214631,-2.309356 -1.246228,0.520191 c -2.594928,1.083153 -6.447852,3.148837 -8.763689,4.6985127 -4.690957,3.139021 -10.397615,9.559437 -12.913155,14.52826 -0.814004,1.607862 -2.769386,6.333315 -2.769386,6.692605 0,0.09731 0.662266,-0.485332 1.471701,-1.294768 0.809436,-0.809437 2.069436,-1.881434 2.8,-2.382218 z m 80.332907,0.57783 C 96.615742,23.650801 94.162432,19.986824 89.896633,15.721025 83.70647,9.5308633 76.427026,5.7034183 67.146844,3.7594583 63.062338,2.9038603 55.434246,2.5777013 51.340553,3.0836213 c -3.977245,0.491529 -7.713709,1.32765 -7.713709,1.726125 0,0.176117 0.956771,1.757396 2.126157,3.513952 9.234486,13.8712817 19.699689,20.0563187 28.778806,17.0085587 1.341143,-0.450208 3.647123,-0.980278 5.1244,-1.177936 6.369687,-0.852256 13.544135,1.362656 18.246495,5.633098 0.86028,0.781261 1.5999,1.386867 1.64361,1.345798 0.0437,-0.04107 -0.29598,-0.998656 -0.75486,-2.127965 z M 116.4993,48.356609 c -0.10681,-0.106813 -0.11133,-0.893955 -0.01,-1.749203 0.22179,-1.87265 -0.28669,-3.277347 -1.36405,-3.768221 -1.31854,-0.600768 -0.9833,-1.328371 0.61203,-1.328371 1.68065,0 2.21138,-0.510493 2.82527,-2.717546 0.30293,-1.089065 0.63408,-1.634083 1.04041,-1.712336 0.62554,-0.120467 0.62421,0.126125 -0.02,3.708474 -0.15806,0.878941 -0.03,1.185018 0.83294,1.991142 1.09666,1.024432 1.05362,1.610266 -0.1183,1.610266 -0.91621,0 -1.58087,0.724256 -2.43346,2.651693 -0.63965,1.446038 -0.94186,1.737027 -1.36479,1.314102 z m 2.21976,-5.704662 c -0.29669,-0.628675 -0.44814,-0.68632 -1.0009,-0.380951 -0.35823,0.197901 -0.68481,0.369312 -0.72576,0.380919 -0.0409,0.01162 0.0974,0.476243 0.30734,1.032525 l 0.38177,1.01142 0.69357,-0.651574 c 0.57831,-0.543296 0.63547,-0.774672 0.34398,-1.392339 z m -4.52957,-6.256855 c -0.11087,-0.179385 -0.11026,-0.937734 10e-4,-1.685219 0.25774,-1.726118 -0.24029,-3.042237 -1.30428,-3.446768 -1.05725,-0.401965 -0.85399,-1.080262 0.36495,-1.217917 1.22417,-0.138243 2.2117,-1.090105 2.92121,-2.815702 0.8524,-2.073098 1.37047,-1.81521 1.29753,0.645901 -0.0661,2.231965 0.25115,2.889232 1.55244,3.215833 1.12529,0.282429 0.78395,0.939511 -0.60537,1.165338 -1.51634,0.246474 -1.94466,0.639002 -2.75646,2.526096 -0.72027,1.674301 -1.14529,2.140067 -1.47138,1.612438 z m 2.64933,-4.999516 c 0.0506,-0.02314 -0.0816,-0.423037 -0.29377,-0.888679 l -0.38574,-0.846624 -0.72363,0.679818 c -0.61041,0.573446 -0.66891,0.799936 -0.37387,1.447475 0.33711,0.739878 0.37392,0.747437 1.0174,0.208861 0.36719,-0.307335 0.70902,-0.577719 0.75961,-0.600851 z"
     id="path2661"
     inkscape:connector-curvature="0" />
  <path
     style="fill:#ffffff;fill-opacity:1;stroke-width:0.19655171"
     d="M 21.372759,3.0976163 C 17.569553,3.0171863 13.718646,4.0950043 10.778161,6.5756603 4.664277,11.288651 1.2020196,19.721652 3.3518081,27.290368 c 1.0517269,2.884227 2.5116629,5.717493 5.0247369,7.596417 0.520627,0.338254 1.178827,1.180558 1.811961,1.048403 1.228635,-3.559778 2.118443,-7.264962 3.881513,-10.62646 3.515994,-7.340636 9.256046,-13.47317 16.088361,-17.8457877 0.557031,-0.485572 1.487873,-0.87158 1.765598,-1.537973 -2.40457,-1.45115 -5.233562,-2.167208 -7.977619,-2.706425 -0.853701,-0.101836 -1.714454,-0.128637 -2.5736,-0.120926 z"
     id="path812"
     inkscape:connector-curvature="0" />
  <path
     style="fill:#4285f4;fill-opacity:1;stroke-width:0.19655171"
     d="M 21.36393,2.6768733 C 17.569019,2.5886933 13.737907,3.6630273 10.738621,6.0355273 5.022833,10.326816 1.568182,17.638827 2.4239458,24.803529 c 0.3873248,3.513317 2.1145532,6.857774 4.5329742,9.401467 0.98537,0.776843 1.902542,2.04903 3.207401,2.191245 0.967666,-0.854778 1.016153,-2.379231 1.499808,-3.528317 2.429327,-8.403374 7.30271,-16.139334 14.162068,-21.621837 2.018303,-1.8073797 4.435192,-3.0948207 6.419096,-4.9188027 0.415393,-0.92596 -0.997502,-1.23304 -1.596597,-1.582395 -2.941833,-1.193916 -6.069843,-2.204459 -9.284766,-2.068016 z"
     id="path814"
     inkscape:connector-curvature="0" />
  <path
     style="fill:#ea4335;fill-opacity:1;stroke-width:0.19655171"
     d="m 55.839945,2.4334873 c -4.069916,0.142816 -8.248671,0.413688 -12.107509,1.797373 -1.039889,0.529484 0.04148,1.660179 0.368918,2.306411 4.457782,7.0278477 9.885242,13.9128817 17.411351,17.8112617 4.11498,2.143511 9.050258,2.784411 13.495159,1.316842 6.265554,-1.99433 13.341602,-1.462404 19.042958,1.90984 1.87846,0.98108 3.37171,2.545598 5.11879,3.718359 0.971118,0.191005 0.66942,-1.096784 0.36617,-1.581459 C 97.374852,23.913305 93.808346,18.692662 89.234055,14.529281 80.775928,6.3119563 68.83648,2.3468193 57.168205,2.4268483 c -0.442797,-0.0041 -0.885501,0.0013 -1.32826,0.0066 z"
     id="path816"
     inkscape:connector-curvature="0" />
  <path
     style="fill:#34a853;fill-opacity:1;stroke-width:0.19655171"
     d="m 89.269475,2.4411643 c -3.07559,0.172667 -6.171337,0.920534 -8.938112,2.274933 -0.852947,0.615343 0.391016,1.286086 0.893312,1.572797 6.422502,3.65642 12.070591,8.6956047 16.105727,14.9041477 2.45931,3.839096 4.131288,8.098559 5.519188,12.419612 0.72197,0.828706 1.47765,-0.590848 2.05419,-0.953967 2.8856,-2.513386 4.6214,-6.346366 4.30333,-10.19227 0.18396,-3.445962 -0.69745,-6.881485 -2.47294,-9.83681 C 103.27948,6.4371743 96.444472,2.1657423 89.269475,2.4411643 Z"
     id="path818"
     inkscape:connector-curvature="0" />
  <path
     style="fill:#fbbc04;fill-opacity:1;stroke-width:0.19655171"
     d="m 39.835185,5.2262873 c -3.610667,1.368401 -6.975175,3.346305 -10.254088,5.3687017 -5.254948,3.786855 -9.717175,8.743302 -12.86894,14.405889 -1.056912,2.261128 -2.175407,4.539209 -2.93044,6.911142 0.368624,1.000694 1.393568,-0.105827 1.846908,-0.48926 2.567307,-2.561246 5.723284,-4.45572 9.152711,-5.593882 3.623899,-1.405548 7.723755,-2.367302 10.370961,-5.434935 3.893835,-3.717598 4.684692,-9.407306 5.185178,-14.5013807 0.108579,-0.337739 -0.111773,-0.766525 -0.50229,-0.666275 z"
     id="path820"
     inkscape:connector-curvature="0" />
  <path
     style="fill:#000000;fill-opacity:0;stroke-width:0.19655171"
     d="M 30.184881,66.920683 C 25.114536,66.395361 21.033668,64.505866 17.640077,61.112275 14.899664,58.371863 13.379049,55.5561 12.601346,51.781918 c -0.370987,-1.80039 -0.412572,-2.503198 -0.331172,-5.596865 0.108779,-4.134188 0.433658,-5.658146 1.80175,-8.451723 2.242521,-4.579121 6.576981,-8.179433 12.097158,-10.048206 l 1.670689,-0.565587 h 5.208621 5.20862 l 1.67069,0.562817 c 6.098526,2.054453 10.58383,6.014822 12.643863,11.164095 1.674127,4.184658 1.917018,9.931363 0.610344,14.440426 -1.923752,6.638466 -7.985869,11.985649 -15.121449,13.33811 -1.829892,0.346833 -5.90518,0.499844 -7.875579,0.295698 z M 48.47971,49.538261 c 0.372522,-0.155651 0.855818,-0.575781 1.073988,-0.933621 1.495523,-2.452953 -1.518962,-5.035631 -3.717909,-3.185339 -1.346106,1.132673 -1.085691,3.275611 0.498455,4.101738 0.715992,0.373389 1.28216,0.377933 2.145466,0.01722 z M 47.986322,39.105264 c 0,-0.513886 -1.431374,-3.523674 -2.299974,-4.836218 -0.621362,-0.938944 -0.828685,-0.853053 -2.332884,0.966488 -2.046669,2.475737 -2.754957,3.755935 -2.250515,4.067699 0.333975,0.206407 0.88076,-0.226442 2.032207,-1.608749 0.614329,-0.737499 1.292161,-1.45032 1.506294,-1.584049 0.353807,-0.220955 0.442462,-0.149036 0.971559,0.788152 1.34416,2.380899 1.5789,2.701984 1.97537,2.701984 0.29428,0 0.397943,-0.129027 0.397943,-0.495307 z"
     id="path828"
     inkscape:connector-curvature="0" />
  <path
     style="fill:#000000;fill-opacity:0;stroke-width:0.19655171"
     d="m 77.780564,66.912789 c -4.380712,-0.685977 -8.748346,-2.874716 -11.43862,-5.732198 -1.313855,-1.395516 -2.128872,-2.618478 -3.028408,-4.544235 -1.326766,-2.840382 -1.464803,-3.629213 -1.467724,-8.38751 -0.0029,-4.784394 0.187556,-5.84844 1.651155,-9.222936 1.116162,-2.573442 2.365062,-4.359253 4.638782,-6.633033 1.846794,-1.846842 2.171682,-2.082075 4.266366,-3.089039 4.355236,-2.093666 6.641432,-2.600438 10.917037,-2.419939 2.748017,0.11601 4.606633,0.476891 6.684033,1.297814 4.850707,1.916848 7.962107,4.829604 10.177245,9.527518 1.45684,3.089691 1.99249,6.271823 1.77576,10.549272 -0.16087,3.17488 -0.67708,5.308584 -1.87599,7.754136 -2.624418,5.353375 -7.736927,9.294692 -13.766294,10.612678 -1.740454,0.380453 -6.842035,0.552316 -8.533342,0.287472 z m -7.22548,-16.851817 c 0.0552,-0.389084 -0.152248,-0.547575 -1.572413,-1.201316 -0.899803,-0.414205 -1.784578,-0.804374 -1.966166,-0.867041 -0.258096,-0.08907 0.03149,-0.475594 1.326724,-1.770824 1.654869,-1.65487 2.090046,-2.493634 1.293775,-2.493634 -0.638976,0 -4.747235,3.770314 -4.747235,4.356728 0,0.480217 4.408948,2.574116 5.208621,2.47368 0.240095,-0.03016 0.417855,-0.223835 0.456694,-0.497593 z m 2.589857,-9.586692 c 0,-0.481831 -1.122075,-3.004744 -1.983949,-4.460778 -0.536114,-0.905703 -0.905271,-1.326724 -1.163289,-1.326724 -0.462704,0 -1.629633,1.512563 -2.729481,3.537931 -0.929133,1.710997 -1.040034,2.419194 -0.363798,2.323153 0.309869,-0.04401 0.801203,-0.608072 1.641493,-1.884474 0.659589,-1.001916 1.250668,-1.873081 1.31351,-1.935923 0.06284,-0.06284 0.353422,0.358891 0.645734,0.937183 0.985345,1.949344 1.825259,3.115233 2.244235,3.115233 0.226759,0 0.395545,-0.130406 0.395545,-0.305601 z"
     id="path830"
     inkscape:connector-curvature="0" />
  <path
     style="fill:#000000;fill-opacity:0;stroke-width:0.19655171"
     d="m 115.042,31.82753 c -0.31294,-0.686828 -0.29849,-0.761413 0.28075,-1.449809 0.67869,-0.806569 0.94854,-0.762621 1.2684,0.20657 0.26058,0.789553 0.25322,0.823808 -0.27433,1.277586 -0.69329,0.596342 -0.99111,0.588318 -1.27482,-0.03435 z"
     id="path832"
     inkscape:connector-curvature="0" />
  <path
     style="fill:#000000;fill-opacity:0;stroke-width:0.19655171"
     d="m 117.36578,44.014316 c -0.47095,-1.238689 -0.45067,-1.386834 0.23548,-1.720344 0.73869,-0.359048 1.02938,-0.204724 1.24067,0.658658 0.0939,0.383527 -0.002,0.627149 -0.40697,1.031896 -0.65748,0.65748 -0.82872,0.662251 -1.06918,0.02979 z"
     id="path834"
     inkscape:connector-curvature="0" />
  <path
     style="fill:#ffffff;fill-opacity:1;stroke-width:0.13898306"
     d="m 116.07592,29.71224 c -0.45316,0.404645 -1.11362,0.870344 -1.24026,1.478595 0.12371,0.42824 0.36234,1.46184 1.00165,1.011427 0.58904,-0.435571 1.45894,-0.895263 0.75521,-1.658391 -0.15346,-0.261499 -0.24776,-0.682647 -0.5166,-0.831631 z"
     id="path829"
     inkscape:connector-curvature="0" />
  <path
     style="fill:#ffffff;fill-opacity:1;stroke-width:0.13898306"
     d="m 118.11913,42.10399 c -0.48365,0.194472 -1.54885,0.358479 -1.02287,1.054802 0.25476,0.409516 0.18017,1.21054 0.63985,1.408075 0.65709,-0.396733 1.57563,-1.209946 0.91887,-2.016068 -0.0996,-0.211893 -0.25695,-0.489673 -0.53585,-0.446809 z"
     id="path831"
     inkscape:connector-curvature="0" />
  <path
     style="fill:#ffffff;fill-opacity:1;stroke-width:0.13898306"
     d="m 81.761493,26.863902 c -3.266309,-0.121937 -6.429676,0.919151 -9.286143,2.431491 -1.999571,0.849595 -3.70172,2.219036 -5.118881,3.851452 -2.843765,2.998187 -4.667655,6.922557 -5.379431,10.9743 -0.347317,4.075554 -0.583378,8.387653 1.191675,12.196502 2.362834,5.656428 7.989708,9.435051 13.92427,10.437924 4.256206,0.702285 8.751376,0.338153 12.772844,-1.261602 6.560665,-2.616905 11.657903,-9.0085 12.011213,-16.163213 0.42018,-4.724397 -0.19459,-9.708384 -2.807548,-13.768742 -2.79083,-4.606933 -7.821261,-7.589238 -13.069162,-8.466999 -1.402245,-0.207099 -2.823507,-0.243657 -4.238837,-0.231113 z M 70.061671,34.59972 c 1.083347,0.794143 1.467845,2.242726 2.122478,3.374682 0.300778,0.872337 1.076599,1.789036 0.83987,2.738671 -0.49835,0.466498 -0.999269,-0.557061 -1.267677,-0.874072 -0.705809,-1.000559 -1.12338,-2.248058 -1.877086,-3.174623 -1.009332,1.268904 -1.619026,2.93496 -2.920816,3.958302 -0.770535,0.20025 -0.516042,-0.917962 -0.273622,-1.282607 0.850794,-1.683538 1.756043,-3.460175 3.210182,-4.697464 0.05137,-0.02518 0.108069,-0.04892 0.166671,-0.04289 z m -0.258421,9.055342 c 0.66389,0.339301 -0.142179,1.180052 -0.428622,1.536144 -0.756509,0.925278 -1.810618,1.660162 -2.459348,2.636062 1.140042,0.785276 2.760852,0.92249 3.649662,2.033171 0.267386,0.766323 -0.748958,0.742052 -1.207687,0.551045 -1.553277,-0.517509 -3.221025,-1.097439 -4.408368,-2.258202 0.12616,-0.756076 0.965536,-1.270878 1.428919,-1.8627 1.046576,-0.922811 1.984189,-2.135395 3.31062,-2.640948 l 0.05945,-8.15e-4 z"
     id="path833"
     inkscape:connector-curvature="0" />
  <path
     style="fill:#ffffff;fill-opacity:1;stroke-width:0.13898306"
     d="m 31.661904,27.003699 c -2.079402,-0.08476 -4.171249,0.119474 -6.112101,0.916584 -6.108491,2.069725 -11.376303,7.104194 -12.82351,13.506019 -0.888712,4.258449 -0.818222,8.804415 0.563098,12.950813 2.405471,6.638191 8.747951,11.503449 15.716905,12.387137 3.22323,0.388926 6.534864,0.349904 9.72637,-0.266566 3.920327,-0.974759 7.616426,-2.980449 10.321393,-6.015322 3.25421,-3.353252 5.032586,-8.093813 4.811229,-12.759332 0.04343,-2.655896 0.07106,-5.375104 -0.929017,-7.88726 -2.288021,-6.768308 -8.758749,-11.657927 -15.716945,-12.758018 -1.849218,-0.11628 -3.705671,-0.05823 -5.557422,-0.07406 z m 13.391233,6.630197 c 1.047261,0.921361 1.588221,2.339983 2.272862,3.547868 0.244898,0.706798 0.897354,1.494382 0.6827,2.250874 -0.359441,0.455592 -0.878241,0.255964 -1.063547,-0.246749 -0.780674,-0.982993 -1.083788,-2.32646 -1.998152,-3.183038 -1.237612,0.632497 -1.892268,2.049717 -2.959633,2.928417 -0.2579,0.308882 -0.963829,0.845173 -1.06056,0.112381 0.260178,-1.45401 1.503906,-2.517353 2.326657,-3.687747 0.560466,-0.563336 1.009445,-1.47881 1.799673,-1.722006 z m 2.577702,11.135474 c 1.543094,-0.04331 2.590003,1.546146 2.286163,2.982163 -0.223721,2.013477 -3.220153,2.855578 -4.408098,1.164256 -1.241192,-1.392022 -0.349816,-3.879884 1.5242,-4.102443 0.196915,-0.0361 0.397658,-0.05086 0.597735,-0.04398 z"
     id="path835"
     inkscape:connector-curvature="0" />
  <path
     style="fill:#ba6b04;fill-opacity:0;stroke-width:0.19655171"
     d="m 57.936526,42.474353 c -1.275014,0.341248 -1.013323,2.128323 -1.224093,3.135878 0.06856,5.504724 -1.122957,11.259491 -4.656908,15.626703 -3.402269,4.222426 -8.492524,6.868722 -13.704302,8.097439 -3.865037,0.570918 -7.868566,0.517517 -11.704424,-0.242234 -4.532522,-1.146614 -8.649601,-3.618686 -11.940517,-6.919619 -0.768874,-0.780148 -0.279609,0.439521 -0.134038,0.797564 1.814376,5.302024 4.781409,10.1642 8.654478,14.213305 5.19315,5.838189 12.252819,9.684377 19.668169,11.924647 5.752453,1.87247 11.867521,2.30627 17.868661,1.75973 10.837828,-0.4167 21.537365,-4.94403 29.139547,-12.727746 4.480143,-4.311557 7.893943,-9.743666 9.741543,-15.678046 -0.15654,-0.418217 -0.85478,0.529428 -1.11136,0.623053 -4.91343,4.480469 -11.549407,7.063849 -18.22618,6.682387 -6.94295,-0.183762 -13.889313,-3.419949 -17.886355,-9.212223 -3.312502,-4.34975 -3.234746,-10.030183 -3.514514,-15.224358 -0.264049,-0.873977 0.322653,-2.409485 -0.734382,-2.842276 -0.07692,-0.01755 -0.156842,-0.02125 -0.235325,-0.0142 z m 2.960945,18.045521 c 0.964638,0.29688 0.116313,1.616819 -0.109025,2.223875 -0.651243,1.839458 -2.855881,3.376803 -4.731446,2.224643 -1.249244,-0.824208 -2.706179,-1.756135 -3.292241,-3.170548 0.380013,-0.673886 1.31212,0.344437 1.796447,0.492849 1.213994,0.699443 2.980473,2.449919 4.270552,0.957488 0.820444,-0.757636 0.913316,-2.38146 2.065713,-2.728307 z"
     id="path902"
     inkscape:connector-curvature="0" />
  <path
     style="fill:#ba6b04;fill-opacity:0;stroke-width:0.19655171"
     d="m 57.936526,42.474353 c -1.275014,0.341248 -1.013323,2.128323 -1.224093,3.135878 0.06856,5.504724 -1.122957,11.259491 -4.656908,15.626703 -3.402269,4.222426 -8.492524,6.868722 -13.704302,8.097439 -3.865037,0.570918 -7.868566,0.517517 -11.704424,-0.242234 -4.532522,-1.146614 -8.649601,-3.618686 -11.940517,-6.919619 -0.768874,-0.780148 -0.279609,0.439521 -0.134038,0.797564 1.814376,5.302024 4.781409,10.1642 8.654478,14.213305 5.19315,5.838189 12.252819,9.684377 19.668169,11.924647 5.752453,1.87247 11.867521,2.30627 17.868661,1.75973 10.837828,-0.4167 21.537365,-4.94403 29.139547,-12.727746 4.480143,-4.311557 7.893943,-9.743666 9.741543,-15.678046 -0.15654,-0.418217 -0.85478,0.529428 -1.11136,0.623053 -4.91343,4.480469 -11.549407,7.063849 -18.22618,6.682387 -6.94295,-0.183762 -13.889313,-3.419949 -17.886355,-9.212223 -3.312502,-4.34975 -3.234746,-10.030183 -3.514514,-15.224358 -0.264049,-0.873977 0.322653,-2.409485 -0.734382,-2.842276 -0.07692,-0.01755 -0.156842,-0.02125 -0.235325,-0.0142 z m 2.960945,18.045521 c 0.964638,0.29688 0.116313,1.616819 -0.109025,2.223875 -0.651243,1.839458 -2.855881,3.376803 -4.731446,2.224643 -1.249244,-0.824208 -2.706179,-1.756135 -3.292241,-3.170548 0.380013,-0.673886 1.31212,0.344437 1.796447,0.492849 1.213994,0.699443 2.980473,2.449919 4.270552,0.957488 0.820444,-0.757636 0.913316,-2.38146 2.065713,-2.728307 z"
     id="path906"
     inkscape:connector-curvature="0" />
  <path
     style="fill:#ba6b04;fill-opacity:1;stroke-width:0.09827586"
     d="m 57.944733,42.269488 c -0.941072,0.07159 -1.201224,1.200195 -1.296397,1.973387 -0.191556,2.100342 -0.03453,4.207999 -0.378517,6.293146 -0.722499,5.739477 -3.739978,11.32193 -8.613148,14.587787 -2.635587,1.75186 -5.533289,3.104271 -8.596592,3.890681 -3.139768,0.689072 -6.395977,0.621755 -9.565776,0.381628 -3.878693,-0.343509 -7.56386,-1.958861 -10.800218,-4.098407 -1.569144,-1.037761 -2.837692,-2.449219 -4.32145,-3.589181 -0.422648,-0.192606 -0.405926,0.402629 -0.247034,0.632267 1.311349,3.442555 2.700616,6.914305 4.877447,9.916787 2.963255,4.126873 6.496781,7.895299 10.639225,10.85669 5.401948,3.630673 11.572425,6.075603 17.936578,7.387073 4.675873,1.00358 9.485984,0.73843 14.22489,0.50323 5.806808,-0.33472 11.500088,-1.96144 16.744883,-4.44322 6.451358,-3.10962 12.015351,-7.957845 16.216348,-13.737674 2.20494,-3.060241 3.79745,-6.522133 5.06123,-10.062635 0.0885,-0.326343 0.395468,-1.077717 -0.14821,-1.147914 -0.51492,0.255485 -0.71361,0.909871 -1.17842,1.238546 -2.29751,2.096735 -4.955496,3.851645 -7.826292,5.038632 -6.791685,2.657239 -14.708064,2.330731 -21.154646,-1.145144 -2.793799,-1.62072 -5.307154,-3.866087 -7.150528,-6.550701 -1.590777,-2.364887 -2.627241,-5.148889 -2.851253,-8.004474 -0.361996,-3.003346 -0.213156,-6.052679 -0.615658,-9.056176 -0.05444,-0.499107 -0.442954,-0.885711 -0.956462,-0.864328 z m 2.992039,18.352057 c 0.430618,0.126055 0.150655,0.777264 0.0906,1.089479 -0.484538,1.411629 -1.288394,3.022812 -2.878023,3.387254 -1.074501,0.178739 -2.15909,-0.173362 -2.968622,-0.892352 -0.849257,-0.703851 -1.783555,-1.407501 -2.359963,-2.352287 0.27835,-0.379556 0.792586,0.09729 1.104834,0.215554 1.232254,0.643327 2.243244,1.88728 3.706651,1.990086 1.218165,0.04597 1.765906,-1.246063 2.242302,-2.149975 0.275894,-0.431368 0.487287,-1.196175 1.062224,-1.287759 z"
     id="path931"
     inkscape:connector-curvature="0" />
  <path
     style="fill:#ba6b04;fill-opacity:1;stroke-width:0.09827586"
     d="m 42.529051,8.5416753 c -0.42509,0.250595 -0.29145,0.925288 -0.475447,1.339008 -0.666169,3.4454907 -1.573318,6.9552837 -3.522604,9.8879637 -0.838105,1.386373 -2.043742,2.439444 -3.154012,3.583506 -0.309977,0.258089 -0.456821,0.928847 0.09348,0.990629 1.581621,0.177838 3.150196,0.34704 4.6756,0.865393 2.79254,0.89307 5.482522,2.146312 7.910043,3.809428 2.449552,1.817388 4.457529,4.20568 5.856023,6.920984 0.729695,1.337601 1.42455,2.71033 1.773216,4.190521 0.481915,0.37418 1.060282,-0.241618 1.59564,-0.205765 1.001406,-0.09507 2.011953,0.184707 2.997605,0.125916 1.207012,-3.190494 2.936861,-6.203242 5.257182,-8.735417 0.674536,-0.807897 1.60238,-1.426068 2.138845,-2.334628 C 67.659652,28.48852 66.9354,28.578638 66.605791,28.40907 60.761009,27.094845 55.656036,23.536446 51.443012,19.366562 48.247458,16.226093 45.556352,12.616962 43.050761,8.9192313 42.915058,8.7625193 42.772953,8.5070783 42.529054,8.5416753 Z"
     id="path933"
     inkscape:connector-curvature="0" />
  <path
     style="fill:#ba6b04;fill-opacity:1;stroke-width:0.09827586"
     d="m 104.78738,40.054634 c -0.45506,0.189752 -0.18134,0.861118 -0.2904,1.248829 -0.18151,4.492136 -0.13004,9.016069 -0.39451,13.488303 -0.1977,1.614637 -0.70779,3.189272 -0.81476,4.810934 0.11779,0.600986 0.89745,0.345664 1.20926,0.0501 2.85743,-2.213051 4.41642,-5.76525 4.82626,-9.290907 0.0236,-1.855732 0.21876,-3.770086 -0.28791,-5.580609 -0.58237,-2.05325 -2.15013,-3.762573 -4.0391,-4.701118 -0.0673,-0.02034 -0.13838,-0.03429 -0.20884,-0.02553 z"
     id="path935"
     inkscape:connector-curvature="0" />
  <path
     style="fill:#ba6b04;fill-opacity:1;stroke-width:0.09827586"
     d="m 9.161327,41.559483 c -0.826619,0.524323 -1.515881,1.285261 -2.126559,2.049013 -1.370824,2.113398 -2.354714,4.567834 -2.268115,7.124419 0.01729,2.93198 0.152157,6.146003 2.035094,8.560754 1.106491,1.385519 2.449248,2.816816 4.256381,3.184368 0.573837,0.0081 0.415522,-0.695605 0.321316,-1.047444 C 10.699391,58.155623 9.929592,54.880177 9.809406,51.531576 9.60736,48.259786 9.607204,44.970576 9.408552,41.697684 9.365722,41.600664 9.27031,41.532063 9.161327,41.559483 Z"
     id="path937"
     inkscape:connector-curvature="0" />
  <path
     style="fill:#000000;stroke-width:0.32000002"
     d="m 60.829902,109.86924 c 0.101824,-0.66 0.41399,-3.35951 0.693702,-5.99891 0.279712,-2.6394 0.541952,-4.832304 0.582758,-4.873104 0.04081,-0.0408 0.392212,-0.1133 0.7809,-0.16109 0.611049,-0.0751 1.091152,0.62777 3.54697,5.193104 2.869917,5.33512 2.972598,5.74378 1.446057,5.7551 -0.446797,0.003 -0.839782,-0.37058 -1.213725,-1.15474 -0.522483,-1.09566 -0.618454,-1.14882 -1.73927,-0.96353 -0.652448,0.10787 -1.366272,0.19771 -1.586272,0.19965 -0.221104,0.002 -0.401955,0.39709 -0.404368,0.88352 -0.0088,1.76934 -0.327098,2.32 -1.341082,2.32 -0.918288,0 -0.944474,-0.041 -0.76567,-1.2 z m 3.649632,-4.19523 c 0.337187,-0.21385 0.308272,-0.4966 -0.148803,-1.45509 -0.473399,-0.99273 -0.605168,-1.09365 -0.79602,-0.60967 -0.653561,1.6574 -0.149555,2.75883 0.944823,2.06476 z m -11.458513,-0.19075 v -4.62598 l -2.32,-0.094 c -2.130317,-0.0863 -2.328375,-0.153 -2.422445,-0.815454 -0.05634,-0.39679 0.09454,-0.79702 0.33529,-0.88941 0.240752,-0.0924 2.806851,-0.0557 5.702445,0.0814 l 5.26471,0.24941 0.101255,0.880004 0.101254,0.88 h -2.421254 -2.421255 v 4.48 4.48 h -0.96 -0.96 z m 18.400001,4.32346 c -2.332294,-0.95459 -3.341926,-4.84707 -2.229158,-8.59416 0.622803,-2.097214 1.596941,-3.226714 3.067786,-3.557044 2.044108,-0.45909 4.894396,0.96913 4.695456,2.352794 -0.118,0.82077 -1.09018,1.03225 -1.798477,0.39125 -0.295229,-0.26718 -0.93984,-0.639024 -1.432471,-0.826324 -0.772435,-0.29368 -1.000476,-0.23575 -1.657174,0.42095 -2.339904,2.339904 -1.492074,8.677584 1.074675,8.033374 0.871795,-0.21881 3.212887,-1.75527 3.856947,-2.53132 0.849196,-1.02322 2.214086,-0.30732 1.744946,0.91524 -0.26309,0.68561 -3.319146,2.91472 -4.57028,3.33359 -1.247283,0.41758 -1.84967,0.43107 -2.75225,0.0616 z M 30.14102,106.74721 c -2.238577,-0.79388 -3.08682,-2.46648 -2.407367,-4.74696 0.84665,-2.841664 4.085082,-6.006454 6.635876,-6.484984 2.491814,-0.46747 4.331056,0.9841 4.382762,3.45896 0.0248,1.186334 -0.06852,1.388844 -0.679959,1.475784 -0.551043,0.0784 -0.755267,-0.0996 -0.91807,-0.800004 -0.338455,-1.45606 -1.043136,-2.34077 -1.864455,-2.34077 -1.87137,0 -5.383027,3.409304 -5.819939,5.650304 -0.275952,1.41542 0.846531,2.09945 3.82671,2.33198 1.895354,0.14788 2.297076,0.27874 2.392605,0.77937 0.06315,0.33091 -0.07936,0.72471 -0.316678,0.8751 -0.669895,0.42454 -3.810356,0.30521 -5.231485,-0.19878 z m 13.698666,-0.78836 c -2.335363,-0.69397 -2.658666,-0.86778 -2.658666,-1.42931 0,-1.07036 0.851312,-1.18793 3.348241,-0.46242 2.285724,0.66414 2.437638,0.76336 2.347804,1.53337 -0.120969,1.03692 -0.573987,1.09037 -3.037379,0.35836 z m 37.380156,-1.66368 c -1.60077,-0.79235 -2.9621,-2.69182 -3.7731,-5.264604 -0.601926,-1.90954 -0.414226,-2.77231 0.5708,-2.62378 0.51639,0.0779 0.81317,0.53628 1.23694,1.91056 0.91179,2.956924 2.60602,4.751894 4.48519,4.751894 1.15588,0 2.24135,-1.39791 2.24135,-2.88649 0,-1.511854 -0.30242,-2.190984 -1.8023,-4.047374 -1.18082,-1.46148 -1.34661,-2.17448 -0.57452,-2.47076 0.7915,-0.30372 1.54049,0.27272 2.87838,2.21528 1.0849,1.57523 1.25374,2.06866 1.34648,3.9352 0.1259,2.533964 -0.49084,3.800884 -2.25863,4.639754 -1.50763,0.71542 -2.66875,0.6728 -4.35059,-0.15968 z m -60.838823,-2.36082 c -2.049648,-1.39498 -3.04,-2.267334 -3.04,-2.677784 0,-0.80444 7.078551,-8.34733 7.833469,-8.34733 0.890935,0 5.18,3.48495 5.060596,4.11184 -0.189828,0.99659 -1.456276,0.77661 -3.204721,-0.55666 l -1.687862,-1.28709 -1.058023,1.02548 -1.058022,1.02547 1.35033,1.15146 c 0.951539,0.81139 1.289555,1.30983 1.14454,1.68773 -0.381782,0.99491 -1.133497,0.92297 -2.558688,-0.24486 l -1.39968,-1.14693 -0.985776,1.22667 -0.985779,1.22666 2.556733,1.652634 c 2.095014,1.35418 2.53833,1.78221 2.45481,2.37012 -0.175492,1.23533 -1.254624,0.93823 -4.421927,-1.21741 z m 68.309513,-5.208094 c -2.73465,-4.10518 -3.09306,-5.17702 -1.73108,-5.17702 0.38881,0 1.38125,1.14765 2.91062,3.3658 l 2.32066,3.36581 1.82747,-1.8084 c 1.50516,-1.48946 1.975,-1.7802 2.66398,-1.6485 0.78443,0.14996 0.80966,0.11775 0.40538,-0.5174 -2.09899,-3.29757 -3.74654,-6.32384 -3.74654,-6.88175 0,-0.87089 0.44834,-0.87002 6.56,0.0128 4.877498,0.70451 5.853558,1.06935 5.478148,2.04767 -0.1796,0.46802 -0.51574,0.51757 -2.36376,0.34845 l -2.15439,-0.19717 -1.139358,1.6889 -1.13937,1.68889 0.93084,1.51466 c 0.511958,0.83307 0.849198,1.72743 0.749408,1.98748 -0.290968,0.75825 -1.651588,0.57642 -2.038328,-0.27241 -0.33006,-0.72439 -0.41707,-0.67076 -3.11492,1.92 -1.52646,1.46587 -2.98017,2.665224 -3.23047,2.665224 -0.2503,0 -1.68503,-1.846344 -3.18829,-4.102984 z m 9.38435,-6.47004 c 0.53879,-0.86273 0.24179,-1.26698 -0.93084,-1.26698 h -0.9592 l 0.56708,0.96 c 0.67158,1.13689 0.78783,1.16387 1.32296,0.30698 z m -81.930958,3.40812 c -0.6584,-0.24073 -1.57544,-0.68559 -2.037862,-0.98858 -0.806176,-0.52823 -0.878176,-0.52324 -1.749949,0.12129 -1.255699,0.92838 -2.215095,0.88947 -2.215095,-0.0898 0,-0.50519 0.404442,-1.0692 1.2,-1.67344 0.66,-0.50129 2.548468,-2.04332 4.196593,-3.42673 2.75759,-2.3147 3.082006,-2.49928 4.067549,-2.3144 2.111699,0.39616 3.779955,3.04741 3.164272,5.02877 -0.860432,2.76898 -3.942327,4.32397 -6.625508,3.34292 z m 3.531376,-2.32516 c 1.510874,-0.95353 1.597556,-3.13013 0.155396,-3.90195 -0.470151,-0.25162 -1.000848,0.0329 -2.760775,1.48008 l -2.178739,1.79158 0.744918,0.56584 c 1.277319,0.97025 2.571242,0.9909 4.0392,0.0644 z M 6.359249,89.299506 c -1.402484,-0.85507 -2.4323696,-3.13846 -2.199299,-4.876125 0.213102,-1.5888 0.670613,-2.11101 1.429876,-1.63208 0.406957,0.25671 0.551192,0.78543 0.551192,2.020515 0,1.43613 0.127042,1.78211 0.897845,2.44512 1.793938,1.54308 3.306478,0.64236 2.964984,-1.76565 -0.537629,-3.791005 -0.564634,-4.540285 -0.195734,-5.430885 1.172374,-2.83037 5.921056,-1.29041 6.607699,2.14281 0.232144,1.16071 -0.32999,2.30603 -1.131814,2.30603 -0.659651,0 -1.057344,-0.71387 -0.788295,-1.415 0.26266,-0.68448 -0.41543,-1.71724 -1.493568,-2.27477 -1.337984,-0.6919 -1.690976,-0.35195 -1.465523,1.41134 0.624912,4.887445 0.625251,4.921415 0.05985,5.971295 -0.972026,1.80494 -3.282586,2.28909 -5.237216,1.0974 z m 95.621771,-3.67522 c -2.375998,-1.292785 -4.364468,-2.565695 -4.418818,-2.828685 -0.18062,-0.87391 0.58432,-3.0438 1.42535,-4.04331 2.465138,-2.92965 6.167298,-2.44056 6.699078,0.885 l 0.20015,1.25168 1.52046,-0.14609 c 1.86395,-0.17911 2.97208,0.33248 2.8332,1.30801 -0.0868,0.60939 -0.27314,0.68736 -1.46325,0.61211 -1.43659,-0.0908 -2.75586,0.4209 -3.65963,1.41956 -0.51866,0.573105 -0.46655,0.639615 1.21313,1.548215 1.33973,0.72472 1.73321,1.10192 1.6627,1.59392 -0.17115,1.19424 -1.55131,0.82685 -6.01237,-1.60041 z m 1.23016,-2.955045 c 0.9592,-2.42695 0.68182,-3.92 -0.72827,-3.92 -0.85617,0 -2.743738,1.93745 -2.738758,2.81113 0.003,0.52156 1.990528,1.9446 2.758048,1.9747 0.19864,0.008 0.51769,-0.38183 0.70898,-0.86583 z"
     id="path876"
     inkscape:connector-curvature="0" />
</svg>
